<svg width="283" height="42" viewBox="0 0 283 42" fill="none" xmlns="http://www.w3.org/2000/svg">
<path d="M0.0400002 4H5.88V32H0.0400002V4ZM9.56 32H3.72V26.8H9.36C10.5867 26.8 11.7467 26.64 12.84 26.32C13.9333 25.9733 14.8933 25.44 15.72 24.72C16.5467 24 17.1867 23.0933 17.64 22C18.12 20.88 18.36 19.5467 18.36 18C18.36 16.4533 18.12 15.1333 17.64 14.04C17.1867 12.92 16.5467 12 15.72 11.28C14.8933 10.56 13.9333 10.04 12.84 9.72C11.7467 9.37333 10.5867 9.2 9.36 9.2H3.72V4H9.56C12.4933 4 15.0533 4.57333 17.24 5.72C19.4533 6.86667 21.1733 8.49333 22.4 10.6C23.6267 12.68 24.24 15.1467 24.24 18C24.24 20.8533 23.6267 23.3333 22.4 25.44C21.1733 27.52 19.4533 29.1333 17.24 30.28C15.0533 31.4267 12.4933 32 9.56 32ZM36.0728 32.4C34.0728 32.4 32.3261 32 30.8328 31.2C29.3395 30.4 28.1795 29.2933 27.3528 27.88C26.5528 26.44 26.1528 24.7467 26.1528 22.8C26.1528 20.8267 26.5528 19.1333 27.3528 17.72C28.1795 16.28 29.3395 15.1733 30.8328 14.4C32.3261 13.6 34.0861 13.2 36.1128 13.2C38.1395 13.2 39.8595 13.5733 41.2728 14.32C42.7128 15.04 43.8061 16.1067 44.5528 17.52C45.2995 18.9067 45.6728 20.5867 45.6728 22.56C45.6728 22.8 45.6595 23.0533 45.6328 23.32C45.6328 23.5867 45.6195 23.8 45.5928 23.96H29.1128V20.76H41.0728L39.6728 22.6C39.7795 22.44 39.8728 22.2267 39.9528 21.96C40.0595 21.6667 40.1128 21.4267 40.1128 21.24C40.1128 20.3333 39.9395 19.56 39.5928 18.92C39.2728 18.28 38.8061 17.7733 38.1928 17.4C37.5795 17.0267 36.8595 16.84 36.0328 16.84C35.0195 16.84 34.1661 17.0667 33.4728 17.52C32.8061 17.9467 32.2861 18.6 31.9128 19.48C31.5661 20.3333 31.3795 21.4 31.3528 22.68C31.3528 23.9067 31.5261 24.9467 31.8728 25.8C32.2461 26.6533 32.7928 27.3067 33.5128 27.76C34.2328 28.2133 35.0995 28.44 36.1128 28.44C37.2595 28.44 38.2328 28.2267 39.0328 27.8C39.8595 27.3467 40.5395 26.68 41.0728 25.8L45.5928 27.2C44.6328 28.9333 43.3528 30.24 41.7528 31.12C40.1795 31.9733 38.2861 32.4 36.0728 32.4ZM49.7003 25.64C50.4736 26.36 51.1936 26.9467 51.8603 27.4C52.527 27.8267 53.1536 28.1467 53.7403 28.36C54.3536 28.5733 54.927 28.68 55.4603 28.68C56.1536 28.68 56.687 28.5333 57.0603 28.24C57.4336 27.92 57.6203 27.4933 57.6203 26.96C57.6203 26.48 57.4603 26.08 57.1403 25.76C56.847 25.4133 56.407 25.1067 55.8203 24.84C55.2336 24.5733 54.487 24.2933 53.5803 24C52.727 23.68 51.9003 23.3067 51.1003 22.88C50.3003 22.4267 49.6336 21.84 49.1003 21.12C48.5936 20.3733 48.3403 19.4267 48.3403 18.28C48.3403 17.1867 48.6336 16.2667 49.2203 15.52C49.807 14.7467 50.5936 14.1733 51.5803 13.8C52.5936 13.4 53.7136 13.2 54.9403 13.2C55.9803 13.2 56.9536 13.3333 57.8603 13.6C58.767 13.8667 59.607 14.2267 60.3803 14.68C61.1536 15.1067 61.8336 15.6133 62.4203 16.2L60.1403 19.4C59.4736 18.68 58.6736 18.0933 57.7403 17.64C56.8336 17.1867 55.9403 16.96 55.0603 16.96C54.4736 16.96 54.007 17.08 53.6603 17.32C53.3403 17.5333 53.1803 17.8667 53.1803 18.32C53.1803 18.72 53.3403 19.08 53.6603 19.4C54.007 19.6933 54.487 19.96 55.1003 20.2C55.7403 20.44 56.4603 20.7333 57.2603 21.08C58.247 21.4533 59.1536 21.88 59.9803 22.36C60.8336 22.8133 61.5136 23.3867 62.0203 24.08C62.527 24.7733 62.7803 25.68 62.7803 26.8C62.7803 28.64 62.1803 30.08 60.9803 31.12C59.7803 32.1333 58.127 32.64 56.0203 32.64C54.7136 32.64 53.5136 32.4667 52.4203 32.12C51.3536 31.7733 50.3803 31.32 49.5003 30.76C48.647 30.1733 47.8736 29.5467 47.1803 28.88L49.7003 25.64ZM65.3184 6.48C65.3184 5.62667 65.6251 4.93333 66.2384 4.4C66.8518 3.84 67.5851 3.56 68.4384 3.56C69.2918 3.56 70.0118 3.84 70.5984 4.4C71.2118 4.93333 71.5184 5.62667 71.5184 6.48C71.5184 7.30667 71.2118 8 70.5984 8.56C70.0118 9.12 69.2918 9.4 68.4384 9.4C67.5851 9.4 66.8518 9.12 66.2384 8.56C65.6251 8 65.3184 7.30667 65.3184 6.48ZM65.8784 13.6H70.9184V32H65.8784V13.6ZM74.7378 33.28H79.8178C79.8445 34.08 80.0578 34.76 80.4578 35.32C80.8578 35.9067 81.4045 36.36 82.0978 36.68C82.7911 37 83.6045 37.16 84.5378 37.16C85.3911 37.16 86.1911 36.96 86.9378 36.56C87.7111 36.16 88.3245 35.5467 88.7778 34.72C89.2578 33.8933 89.4978 32.8533 89.4978 31.6V13.6H94.4978V31.6C94.4978 33.8667 94.0445 35.7333 93.1378 37.2C92.2578 38.6667 91.0711 39.7333 89.5778 40.4C88.0845 41.0933 86.4578 41.44 84.6978 41.44C82.5645 41.44 80.7778 41.0933 79.3378 40.4C77.8978 39.7333 76.7911 38.7733 76.0178 37.52C75.2711 36.2933 74.8445 34.88 74.7378 33.28ZM74.3778 22.64C74.3778 20.5867 74.7911 18.8667 75.6178 17.48C76.4445 16.0667 77.5378 15 78.8978 14.28C80.2578 13.56 81.6978 13.2 83.2178 13.2C84.7645 13.2 86.1245 13.5733 87.2978 14.32C88.4978 15.0667 89.4311 16.1467 90.0978 17.56C90.7911 18.9467 91.1378 20.64 91.1378 22.64C91.1378 24.6133 90.7911 26.3067 90.0978 27.72C89.4311 29.1333 88.4978 30.2133 87.2978 30.96C86.1245 31.68 84.7645 32.04 83.2178 32.04C81.6978 32.04 80.2578 31.68 78.8978 30.96C77.5378 30.24 76.4445 29.1867 75.6178 27.8C74.7911 26.3867 74.3778 24.6667 74.3778 22.64ZM79.7378 22.64C79.7378 23.7333 79.9645 24.6667 80.4178 25.44C80.8711 26.1867 81.4845 26.76 82.2578 27.16C83.0311 27.56 83.8578 27.76 84.7378 27.76C85.5111 27.76 86.2578 27.5733 86.9778 27.2C87.7245 26.8 88.3245 26.2267 88.7778 25.48C89.2578 24.7067 89.4978 23.76 89.4978 22.64C89.4978 21.7867 89.3645 21.04 89.0978 20.4C88.8312 19.76 88.4578 19.2267 87.9778 18.8C87.5245 18.3733 87.0178 18.0533 86.4578 17.84C85.8978 17.6 85.3245 17.48 84.7378 17.48C83.8578 17.48 83.0311 17.68 82.2578 18.08C81.4845 18.48 80.8711 19.0667 80.4178 19.84C79.9645 20.5867 79.7378 21.52 79.7378 22.64ZM110.604 20.8C110.604 19.5733 110.364 18.64 109.884 18C109.404 17.36 108.631 17.04 107.564 17.04C106.844 17.04 106.204 17.2 105.644 17.52C105.084 17.8133 104.657 18.24 104.364 18.8C104.071 19.36 103.924 20.0267 103.924 20.8V32H98.7241V13.6H103.924V16.4C104.484 15.36 105.217 14.5733 106.124 14.04C107.057 13.48 108.177 13.2 109.484 13.2C111.671 13.2 113.297 13.8267 114.364 15.08C115.431 16.3067 115.964 18.0267 115.964 20.24V32H110.604V20.8ZM128.948 32.4C126.948 32.4 125.201 32 123.708 31.2C122.214 30.4 121.054 29.2933 120.228 27.88C119.428 26.44 119.028 24.7467 119.028 22.8C119.028 20.8267 119.428 19.1333 120.228 17.72C121.054 16.28 122.214 15.1733 123.708 14.4C125.201 13.6 126.961 13.2 128.988 13.2C131.014 13.2 132.734 13.5733 134.148 14.32C135.588 15.04 136.681 16.1067 137.428 17.52C138.174 18.9067 138.548 20.5867 138.548 22.56C138.548 22.8 138.534 23.0533 138.508 23.32C138.508 23.5867 138.494 23.8 138.468 23.96H121.988V20.76H133.948L132.548 22.6C132.654 22.44 132.748 22.2267 132.828 21.96C132.934 21.6667 132.988 21.4267 132.988 21.24C132.988 20.3333 132.814 19.56 132.468 18.92C132.148 18.28 131.681 17.7733 131.068 17.4C130.454 17.0267 129.734 16.84 128.908 16.84C127.894 16.84 127.041 17.0667 126.348 17.52C125.681 17.9467 125.161 18.6 124.788 19.48C124.441 20.3333 124.254 21.4 124.228 22.68C124.228 23.9067 124.401 24.9467 124.748 25.8C125.121 26.6533 125.668 27.3067 126.388 27.76C127.108 28.2133 127.974 28.44 128.988 28.44C130.134 28.44 131.108 28.2267 131.908 27.8C132.734 27.3467 133.414 26.68 133.948 25.8L138.468 27.2C137.508 28.9333 136.228 30.24 134.628 31.12C133.054 31.9733 131.161 32.4 128.948 32.4ZM146.735 13.6V32H141.655V13.6H146.735ZM152.135 19C151.789 18.68 151.429 18.44 151.055 18.28C150.709 18.0933 150.269 18 149.735 18C149.095 18 148.549 18.1733 148.095 18.52C147.642 18.8667 147.295 19.36 147.055 20C146.842 20.6133 146.735 21.36 146.735 22.24L145.295 20.8C145.295 19.3333 145.575 18.04 146.135 16.92C146.695 15.7733 147.429 14.8667 148.335 14.2C149.242 13.5067 150.175 13.16 151.135 13.16C151.802 13.16 152.429 13.28 153.015 13.52C153.629 13.76 154.122 14.12 154.495 14.6L152.135 19ZM157.361 25.64C158.135 26.36 158.855 26.9467 159.521 27.4C160.188 27.8267 160.815 28.1467 161.401 28.36C162.015 28.5733 162.588 28.68 163.121 28.68C163.815 28.68 164.348 28.5333 164.721 28.24C165.095 27.92 165.281 27.4933 165.281 26.96C165.281 26.48 165.121 26.08 164.801 25.76C164.508 25.4133 164.068 25.1067 163.481 24.84C162.895 24.5733 162.148 24.2933 161.241 24C160.388 23.68 159.561 23.3067 158.761 22.88C157.961 22.4267 157.295 21.84 156.761 21.12C156.255 20.3733 156.001 19.4267 156.001 18.28C156.001 17.1867 156.295 16.2667 156.881 15.52C157.468 14.7467 158.255 14.1733 159.241 13.8C160.255 13.4 161.375 13.2 162.601 13.2C163.641 13.2 164.615 13.3333 165.521 13.6C166.428 13.8667 167.268 14.2267 168.041 14.68C168.815 15.1067 169.495 15.6133 170.081 16.2L167.801 19.4C167.135 18.68 166.335 18.0933 165.401 17.64C164.495 17.1867 163.601 16.96 162.721 16.96C162.135 16.96 161.668 17.08 161.321 17.32C161.001 17.5333 160.841 17.8667 160.841 18.32C160.841 18.72 161.001 19.08 161.321 19.4C161.668 19.6933 162.148 19.96 162.761 20.2C163.401 20.44 164.121 20.7333 164.921 21.08C165.908 21.4533 166.815 21.88 167.641 22.36C168.495 22.8133 169.175 23.3867 169.681 24.08C170.188 24.7733 170.441 25.68 170.441 26.8C170.441 28.64 169.841 30.08 168.641 31.12C167.441 32.1333 165.788 32.64 163.681 32.64C162.375 32.64 161.175 32.4667 160.081 32.12C159.015 31.7733 158.041 31.32 157.161 30.76C156.308 30.1733 155.535 29.5467 154.841 28.88L157.361 25.64ZM173.499 4H179.219V22.44C179.219 24.04 179.633 25.3333 180.459 26.32C181.313 27.28 182.566 27.76 184.219 27.76C185.873 27.76 187.113 27.28 187.939 26.32C188.793 25.3333 189.219 24.04 189.219 22.44V4H194.939V22.8C194.939 24.4533 194.673 25.9067 194.139 27.16C193.606 28.4133 192.846 29.4667 191.859 30.32C190.899 31.1733 189.766 31.8133 188.459 32.24C187.153 32.6933 185.739 32.92 184.219 32.92C182.673 32.92 181.246 32.6933 179.939 32.24C178.633 31.8133 177.499 31.1733 176.539 30.32C175.579 29.4667 174.833 28.4133 174.299 27.16C173.766 25.9067 173.499 24.4533 173.499 22.8V4ZM211.37 20.8C211.37 19.5733 211.13 18.64 210.65 18C210.17 17.36 209.396 17.04 208.33 17.04C207.61 17.04 206.97 17.2 206.41 17.52C205.85 17.8133 205.423 18.24 205.13 18.8C204.836 19.36 204.69 20.0267 204.69 20.8V32H199.49V13.6H204.69V16.4C205.25 15.36 205.983 14.5733 206.89 14.04C207.823 13.48 208.943 13.2 210.25 13.2C212.436 13.2 214.063 13.8267 215.13 15.08C216.196 16.3067 216.73 18.0267 216.73 20.24V32H211.37V20.8ZM220.793 6.48C220.793 5.62667 221.1 4.93333 221.713 4.4C222.327 3.84 223.06 3.56 223.913 3.56C224.767 3.56 225.487 3.84 226.073 4.4C226.687 4.93333 226.993 5.62667 226.993 6.48C226.993 7.30667 226.687 8 226.073 8.56C225.487 9.12 224.767 9.4 223.913 9.4C223.06 9.4 222.327 9.12 221.713 8.56C221.1 8 220.793 7.30667 220.793 6.48ZM221.353 13.6H226.393V32H221.353V13.6ZM228.733 13.6H240.093V17.96H228.733V13.6ZM231.893 7.2H236.893V32H231.893V7.2ZM250.731 32.4C248.731 32.4 246.984 32 245.491 31.2C243.997 30.4 242.837 29.2933 242.011 27.88C241.211 26.44 240.811 24.7467 240.811 22.8C240.811 20.8267 241.211 19.1333 242.011 17.72C242.837 16.28 243.997 15.1733 245.491 14.4C246.984 13.6 248.744 13.2 250.771 13.2C252.797 13.2 254.517 13.5733 255.931 14.32C257.371 15.04 258.464 16.1067 259.211 17.52C259.957 18.9067 260.331 20.5867 260.331 22.56C260.331 22.8 260.317 23.0533 260.291 23.32C260.291 23.5867 260.277 23.8 260.251 23.96H243.771V20.76H255.731L254.331 22.6C254.437 22.44 254.531 22.2267 254.611 21.96C254.717 21.6667 254.771 21.4267 254.771 21.24C254.771 20.3333 254.597 19.56 254.251 18.92C253.931 18.28 253.464 17.7733 252.851 17.4C252.237 17.0267 251.517 16.84 250.691 16.84C249.677 16.84 248.824 17.0667 248.131 17.52C247.464 17.9467 246.944 18.6 246.571 19.48C246.224 20.3333 246.037 21.4 246.011 22.68C246.011 23.9067 246.184 24.9467 246.531 25.8C246.904 26.6533 247.451 27.3067 248.171 27.76C248.891 28.2133 249.757 28.44 250.771 28.44C251.917 28.44 252.891 28.2267 253.691 27.8C254.517 27.3467 255.197 26.68 255.731 25.8L260.251 27.2C259.291 28.9333 258.011 30.24 256.411 31.12C254.837 31.9733 252.944 32.4 250.731 32.4ZM277.318 0.799999H282.518V32H277.318V0.799999ZM262.198 22.8C262.198 20.7467 262.611 19.0133 263.438 17.6C264.265 16.16 265.358 15.0667 266.718 14.32C268.078 13.5733 269.518 13.2 271.038 13.2C272.585 13.2 273.945 13.5867 275.118 14.36C276.318 15.1333 277.251 16.24 277.918 17.68C278.611 19.0933 278.958 20.8 278.958 22.8C278.958 24.7733 278.611 26.48 277.918 27.92C277.251 29.36 276.318 30.4667 275.118 31.24C273.945 32.0133 272.585 32.4 271.038 32.4C269.518 32.4 268.078 32.0267 266.718 31.28C265.358 30.5333 264.265 29.44 263.438 28C262.611 26.56 262.198 24.8267 262.198 22.8ZM267.558 22.8C267.558 23.8933 267.785 24.84 268.238 25.64C268.691 26.44 269.305 27.0533 270.078 27.48C270.851 27.9067 271.678 28.12 272.558 28.12C273.331 28.12 274.078 27.92 274.798 27.52C275.545 27.0933 276.145 26.48 276.598 25.68C277.078 24.88 277.318 23.92 277.318 22.8C277.318 21.68 277.078 20.72 276.598 19.92C276.145 19.12 275.545 18.52 274.798 18.12C274.078 17.6933 273.331 17.48 272.558 17.48C271.678 17.48 270.851 17.6933 270.078 18.12C269.305 18.5467 268.691 19.16 268.238 19.96C267.785 20.76 267.558 21.7067 267.558 22.8Z" fill="#FFC800"/>
</svg>
